<?xml version="1.0" ?><svg xmlns="http://www.w3.org/2000/svg" xmlns:xlink="http://www.w3.org/1999/xlink" version="1.1" baseProfile="full" xml:space="preserve" width="207.0" height="109.0" viewBox="21.8 -13.4 207.0 109.0"><g class="shading"><g id="shading_xeno_b304be11b5"/></g><g class="mol_halo"><g id="mol_halo_xeno_b304be11b5"/></g><g class="lines" style="stroke:#000000;stroke-width:2.0;stroke-miterlimit:10;stroke-opacity:1;stroke-linecap:round;stroke-linejoin:round"><g id="lines_xeno_b304be11b5"><path class="bond-0 atom-0 atom-1" d="m74.4 65.6l1.9 -24.5"/><path class="bond-1 atom-1 atom-2" d="m76.3 41.1l2 -24.5"/><path class="bond-2 atom-1 atom-3" d="m76.3 41.1l-24.5 -1.9"/><use href="#s0_xeno_b304be11b5" x="76.3" y="41.1" class="bond-3 atom-1 atom-4"/><use href="#s1_xeno_b304be11b5" x="100.8" y="43" class="bond-4 atom-4 atom-5"/><use href="#s0_xeno_b304be11b5" x="101.1" y="39.4" class="bond-4 atom-4 atom-5"/><use href="#s1_xeno_b304be11b5" x="100.5" y="46.7" class="bond-4 atom-4 atom-5"/><use href="#s0_xeno_b304be11b5" x="125.3" y="45" class="bond-5 atom-5 atom-6"/><path class="bond-6 atom-6 atom-7" d="m149.8 46.9l14 -20.2"/><path class="bond-6 atom-6 atom-7" d="m148 43.1l12.7 -18.5"/><use href="#s0_xeno_b304be11b5" x="163.8" y="26.7" class="bond-7 atom-7 atom-8"/><path class="bond-8 atom-8 atom-9" d="m188.3 28.6l8.5 17.9"/><path class="bond-8 atom-8 atom-9" d="m185.9 32.1l7.5 16"/><use href="#s2_xeno_b304be11b5" x="99.6" y="42.9"/><use href="#s2_xeno_b304be11b5" x="124.1" y="44.9"/><path d="m148.6 46.8l1.2 0.1 l0.7 -1"/><path d="m163.1 27.7l0.7 -1 l1.2 0.1"/><path d="m187 28.5l1.3 0.1 l0.4 0.9"/></g></g><g class="text"><g id="text_xeno_b304be11b5"><path class="atom-9" d="M 194.0 51.6 Q 194.0 50.0, 194.8 49.0 Q 195.6 48.1, 197.2 48.1 Q 198.7 48.1, 199.5 49.0 Q 200.4 50.0, 200.4 51.6 Q 200.4 53.3, 199.5 54.3 Q 198.7 55.2, 197.2 55.2 Q 195.6 55.2, 194.8 54.3 Q 194.0 53.3, 194.0 51.6 M 197.2 54.5 Q 198.2 54.5, 198.8 53.7 Q 199.4 53.0, 199.4 51.6 Q 199.4 50.3, 198.8 49.6 Q 198.2 48.9, 197.2 48.9 Q 196.1 48.9, 195.5 49.6 Q 195.0 50.3, 195.0 51.6 Q 195.0 53.0, 195.5 53.7 Q 196.1 54.5, 197.2 54.5 "/></g><!-- END OF HEADER --></g><g class="overlay"><g id="overlay_xeno_b304be11b5"/></g><defs><path id="s0_xeno_b304be11b5" d="M0,0l24.5 1.9"/><path id="s1_xeno_b304be11b5" d="M0,0l24.5 2"/><path id="s2_xeno_b304be11b5" d="M0,0l1.2 0.1 l1.3 0.1"/></defs></svg>